# xmcd
#
# Track frame offsets:
#  150
#  10197
#  18385
#  28602
#  40135
#  53955
#  59435
#  66150
#  78250
#  88025
#  97075
#  108555
#  120650
#  130205
#  138520
#  147135
#  157557
#  165660
#  175195
#  185095
#  193465
#  204242
#  210142
#
# Disc length: 2923 seconds
#
# Revision: 0
# Processed by: cddbd v1.5.2PL0 Copyright (c) Steve Scherf et al.
# Submitted via: Collectorz.com_Music_Collector 6.11
#
DISCID=3c0b6917
DTITLE=Elvis Presley - Loving You/King Creole
DYEAR=1900
DGENRE=
TTITLE0=Mean Woman Blues
TTITLE1=Teddy Bear
TTITLE2=Loving You
TTITLE3=Got A Lot O' Livin' To Do
TTITLE4=Lonesome Cowboy
TTITLE5=Hot Dog
TTITLE6=Party
TTITLE7=Blueberry Hill
TTITLE8=True Love
TTITLE9=Don't Leave Me Now
TTITLE10=Have I Told You Lately
TTITLE11=I Need You So
TTITLE12=King Creole
TTITLE13=As Long As I Have You
TTITLE14=Hard Headed Woman
TTITLE15=Trouble
TTITLE16=Dixieland Rock
TTITLE17=Don't Ask Me Why
TTITLE18=Lover Doll
TTITLE19=Crawfish
TTITLE20=Young Dreams
TTITLE21=Steadfast, Loyal And True
TTITLE22=New Orleans
EXTD=
EXTT0=
EXTT1=
EXTT2=
EXTT3=
EXTT4=
EXTT5=
EXTT6=
EXTT7=
EXTT8=
EXTT9=
EXTT10=
EXTT11=
EXTT12=
EXTT13=
EXTT14=
EXTT15=
EXTT16=
EXTT17=
EXTT18=
EXTT19=
EXTT20=
EXTT21=
EXTT22=
PLAYORDER=
